<svg id="Clock" xmlns="http://www.w3.org/2000/svg" width="229.575" height="188.911" viewBox="0 0 229.575 188.911">
  <g id="Group_2" data-name="Group 2" transform="translate(-900.535 -459.043)">
    <path id="Path_4" data-name="Path 4" d="M1093.45,602.806c11.391-6.167,18.242-13.967,20.526-22.1,3.308-11.778-2.975-24.256-18.958-33.484-13.612-7.86-31.668-11.859-49.8-11.965h.006l-38.79-.386c-.3,0-.594-.007-.893-.009h-.235c-17.784-.072-35.627,3.6-49.407,11.06-27.887,15.1-28.59,39.987-1.57,55.586,13.358,7.713,30.994,11.71,48.782,11.956h.213l.692.007,38.73.386h0C1060.953,614.119,1079.331,610.451,1093.45,602.806Z" transform="translate(15.278 34.086)" fill="#3f5052" opacity="0.35" style="mix-blend-mode: multiply;isolation: isolate"/>
    <g id="Group_1" data-name="Group 1" transform="translate(900.535 459.043)">
      <path id="Path_5" data-name="Path 5" d="M1040.924,559.515c0-16.992-4.874-35.483-13.1-52.832l-91.336,52.745c10.913,15.789,24.487,29.253,39.2,37.748,8.226,4.749,16.095,7.529,23.344,8.5l-3.708,11.262,26.049-14.95h-.006C1033.435,595.29,1040.924,580.575,1040.924,559.515Z" transform="translate(-884.369 -437.624)" fill="#f05555"/>
      <path id="Path_6" data-name="Path 6" d="M986.059,467.948c-18.151-10.479-34.569-11.394-46.4-4.4l0,0L913.43,478.6l13.29-.9c-3.782,7.354-5.891,16.739-5.891,27.912,0,24.611,10.223,52.365,26.032,75.237L1038.2,528.1C1026.294,502.979,1007.37,480.252,986.059,467.948Z" transform="translate(-894.737 -459.043)" fill="#f05555"/>
      <path id="Path_7" data-name="Path 7" d="M1031,591.264c0,41.6-29.2,58.461-65.232,37.661s-65.232-71.385-65.232-112.983,29.207-58.462,65.232-37.664S1031,549.664,1031,591.264Z" transform="translate(-900.535 -454.4)" fill="#faf9e1"/>
      <path id="Path_8" data-name="Path 8" d="M1013.906,578.507c0,33.28-23.363,46.768-52.186,30.127s-52.186-57.107-52.186-90.385,23.365-46.77,52.186-30.131S1013.906,545.227,1013.906,578.507Z" transform="translate(-896.489 -449.175)" fill="#f05555"/>
      <path id="Path_9" data-name="Path 9" d="M970.418,603.114c-28.821-16.638-52.186-57.107-52.186-90.385,0-14.016,4.146-24.521,11.1-30.745-12.059,4.078-19.794,16.67-19.794,35.818,0,33.279,23.365,73.747,52.186,90.385,16.685,9.633,31.539,9.169,41.093.615C993.912,611.812,982.659,610.181,970.418,603.114Z" transform="translate(-896.489 -448.728)" fill="#b1b1b3"/>
      <path id="Path_10" data-name="Path 10" d="M975.819,546.357,956.3,535.077V503.92a3.116,3.116,0,0,0-1.409-2.44l-7.947-4.588c-.777-.449-1.409-.086-1.409.813v41.953a3.118,3.118,0,0,0,1.409,2.44l.023.012h0l28.851,16.675c.778.449,1.409-9.09,1.409-9.989h0A3.112,3.112,0,0,0,975.819,546.357Z" transform="matrix(0.995, -0.105, 0.105, 0.995, -930.201, -338.729)" fill="#526a70"/>
    </g>
  </g>
</svg>
