<svg id="Group_6" data-name="Group 6" xmlns="http://www.w3.org/2000/svg" width="251.379" height="214" viewBox="0 0 251.379 214">
  <path id="Path_17" data-name="Path 17" d="M525.69,797.35c-1.917-2.045-1.576-4.542.88-6.437l.391-.3,27.166-20.955.219-.169L538.9,744.815a3.623,3.623,0,0,1-.546-2.623,5.736,5.736,0,0,1,3.072-3.691,16.123,16.123,0,0,1,7.527-1.883v0l24.719-.246h0a18.859,18.859,0,0,1,3.5.276l27.547,4.84,29.925-12.968a17.369,17.369,0,0,1,6.734-1.294h0l24.042-.24c.187-.005.373-.005.56-.005h.117a18.1,18.1,0,0,1,4.565.6c3.712,1.005,6.053,3.111,6.041,5.436l-.21,26.27,58.861,3.063c3.409,1.294,5.181,3.574,4.565,5.875a6.009,6.009,0,0,1-3.012,3.405,14.286,14.286,0,0,1-4.454,1.573l-65.029,19.989-13.573,25.268A6.8,6.8,0,0,1,651.174,821a15.235,15.235,0,0,1-5.983,1.792,19.278,19.278,0,0,1-2.2.1h0l-23.737.237h0c-3.619.109-7.111-.8-9.258-2.452l-27.112-20.833-22.745.465a19.211,19.211,0,0,1-3.131-.192l-21.411.438C531.445,800.633,527.6,799.391,525.69,797.35Z" transform="translate(-524.458 -609.131)" fill="#3f5052" opacity="0.35" style="mix-blend-mode: multiply;isolation: isolate"/>
  <path id="Path_18" data-name="Path 18" d="M519.776,739.977c-13.873-12.963-14.212-32.93-13.553-52.3L544.746,671.8a6.438,6.438,0,0,1,5.888.057h0l16.244,9.324L549.417,690Z" transform="translate(-318.231 -653.544)" fill="#ff8484"/>
  <path id="Path_19" data-name="Path 19" d="M573.216,684.982l-27.724-16.007a20.231,20.231,0,0,1,6.38-6.236c2.7-1.56,5.231-1.809,7.1-.82v0l16.244,9.322-7.344,4.527Z" transform="translate(-397.405 -661.331)" fill="#ff8484"/>
  <path id="Path_20" data-name="Path 20" d="M571.015,700.007l79.756,46.049,2.853,17.284c.659,3.969-.917,9.284-4.055,13.69a19.851,19.851,0,0,1-6,5.685,9.306,9.306,0,0,1-4.748,1.407l-20-.411-90.31-52.142Z" transform="translate(-445.479 -630.577)" fill="#ff8484"/>
  <path id="Path_21" data-name="Path 21" d="M530.185,727.374l.345-.255,19.434-56.012a24.236,24.236,0,0,1,2.772-5.518L580.46,681.6l7.249,12.51,4.931-2.032c-.659,19.373-.32,39.341,13.553,52.3l-.817,1.377,4.565,27.669Z" transform="translate(-404.648 -657.944)" fill="#f05555"/>
  <path id="Path_22" data-name="Path 22" d="M548.481,730.7a23.466,23.466,0,0,1,8.24-12.661l.609-.454,90.31,52.142-18.878-.39-31.033,36.475-3.991,23.109-15.6-8.949v0c-2.463-1.219-3.635-4.443-3.05-8.635l7.421-53.52-31.447-16.709C548.282,739.628,547.282,735.594,548.481,730.7Z" transform="translate(-474.295 -616.597)" fill="#ff8484"/>
  <path id="Path_23" data-name="Path 23" d="M505.012,780.6a23.49,23.49,0,0,1,8.24-12.663l43.455-32.271,19.436-56.012c1.72-4.958,5.272-9.516,9.152-11.755s7.427-1.783,9.146,1.194l19.445,33.56,43.455-17.9c3.847-1.582,7.035-.357,8.236,3.149s.2,8.692-2.58,13.386L631.554,754.3l7.419,44.952c.659,3.969-.917,9.284-4.057,13.69a19.829,19.829,0,0,1-6,5.685,9.3,9.3,0,0,1-4.748,1.409l-38.874-.8-38.872,45.685A18.566,18.566,0,0,1,541.671,869a8.226,8.226,0,0,1-5.994,1.24c-3.145-.776-4.716-4.278-4.057-9.006l7.423-53.519L507.594,791C504.813,789.517,503.813,785.484,505.012,780.6Z" transform="translate(-414.698 -657.232)" fill="#f05555"/>
</svg>
