<svg id="Target" xmlns="http://www.w3.org/2000/svg" width="244.554" height="212.192" viewBox="0 0 244.554 212.192">
  <g id="Group_25" data-name="Group 25" transform="translate(-702.517 -848.613)">
    <path id="Path_11" data-name="Path 11" d="M898.8,998.452c13.373-7.241,21.419-16.4,24.1-25.95,3.882-13.828-3.492-28.477-22.253-39.311-15.985-9.227-37.184-13.923-58.47-14.049h.005l-22.744-.182h-.17l-.279,0,0,0c-21-.138-42.09,4.173-58.363,12.985-32.74,17.726-33.565,46.944-1.843,65.259.3.172.611.334.914.5,15.538,8.7,35.795,13.223,56.232,13.528v0l.56.005c.4,0,.812.008,1.217.008l21.568.175-.005,0C860.654,1011.731,882.231,1007.425,898.8,998.452Z" transform="translate(23.166 49.369)" fill="#3f5052" opacity="0.35" style="mix-blend-mode: multiply;isolation: isolate"/>
    <g id="Group_4" data-name="Group 4" transform="translate(702.517 848.613)">
      <path id="Path_12" data-name="Path 12" d="M788.062,859.069c-21.31-12.3-40.585-13.376-54.468-5.17l0-.005-15.187,8.839,3.159,2.481c-6.418,9.229-10.087,22.1-10.087,38.07,0,28.894,12,61.476,30.562,88.329l107.23-61.923C835.3,900.2,813.083,873.514,788.062,859.069Z" transform="translate(-696.226 -848.613)" fill="#ff8484"/>
      <path id="Path_13" data-name="Path 13" d="M852.042,958.279c0-19.949-5.722-41.658-15.373-62.025l-107.23,61.923c12.811,18.536,28.747,34.343,46.019,44.316,12.638,7.3,24.561,10.643,35.068,10.448l3.276,4.1,15.289-8.891-.005,0C843.253,1000.279,852.042,983,852.042,958.279Z" transform="translate(-683.622 -815.177)" fill="#ce3e3d"/>
      <path id="Path_14" data-name="Path 14" d="M855.685,996.935c0-48.377-33.651-107.085-75.4-131.924h0c-.4-.235-.79-.49-1.19-.72-42.3-24.422-76.583-4.624-76.583,44.214S736.8,1016.731,779.1,1041.151c.4.231.793.429,1.19.652h0C822.034,1065.169,855.685,1045.314,855.685,996.935Z" transform="translate(-702.517 -844.951)" fill="#f05555"/>
      <g id="Group_3" data-name="Group 3" transform="translate(19.911 34.591)">
        <path id="Path_15" data-name="Path 15" d="M770.888,890.828c24.491,14.139,44.418,48.656,44.418,76.935s-19.927,39.786-44.418,25.643-44.418-48.656-44.418-76.934,19.927-39.786,44.418-25.645Zm0-14.149c-31.3-18.07-56.672-3.421-56.672,32.72s25.373,80.087,56.672,98.157,56.671,3.421,56.671-32.718-25.373-80.089-56.671-98.159Z" transform="translate(-714.217 -868.939)" fill="#faf9e1"/>
        <path id="Path_16" data-name="Path 16" d="M757.624,910.839c6.756,3.9,12.255,13.426,12.255,21.225s-5.5,10.975-12.255,7.074-12.253-13.422-12.253-21.224,5.5-10.977,12.253-7.076Zm0-14.147c-13.533-7.813-24.507-1.481-24.507,14.147s10.974,34.634,24.507,42.447,24.506,1.481,24.506-14.147-10.973-34.634-24.506-42.447Z" transform="translate(-700.952 -851.81)" fill="#faf9e1"/>
      </g>
    </g>
  </g>
</svg>
