<svg id="home_-_avatar" data-name="home - avatar" xmlns="http://www.w3.org/2000/svg" xmlns:xlink="http://www.w3.org/1999/xlink" width="737.242" height="756.562" viewBox="0 0 737.242 756.562">
  <defs>
    <clipPath id="clip-path">
      <path id="Body" d="M0,581.35V460.36a72,72,0,0,1,72-72H181.076V347.52a125.05,125.05,0,0,1-76.124-109.638,28.6,28.6,0,0,1-23.944-28.216V176.311a28.6,28.6,0,0,1,23.826-28.2V125a125,125,0,0,1,125-125h16.849a125,125,0,0,1,125,125v23.115a28.6,28.6,0,0,1,23.826,28.2v33.356a28.6,28.6,0,0,1-23.944,28.216,125.051,125.051,0,0,1-76.124,109.638V388.36H404.516a72,72,0,0,1,72,72V581.35Z" fill="#ecdcbf"/>
    </clipPath>
    <clipPath id="clip-path-2">
      <path id="Clothes" d="M476.516,192.866H0V72A71.94,71.94,0,0,1,72,0H174.387a55.98,55.98,0,0,0-.458,7.148c0,32.844,28.858,59.565,64.329,59.565s64.329-26.721,64.329-59.565A55.984,55.984,0,0,0,302.129,0H404.516a71.94,71.94,0,0,1,72,72Z" transform="translate(0 0)" fill="#e6e6e6"/>
    </clipPath>
    <clipPath id="clip-path-3">
      <path id="Clip_75" data-name="Clip 75" d="M91.358,0V79.9H0V0H91.358Z" transform="translate(0 0)" fill="none"/>
    </clipPath>
    <clipPath id="clip-path-4">
      <path id="Short_Hair" data-name="Short Hair" d="M222.316,21.221C174.217-6.654,126.584-2.091,90.626,6.982S33.4,41.819,15.145,79.932a161.256,161.256,0,0,0-15.09,61.55A79.764,79.764,0,0,0,3.02,165.83c.8,2.873,5.136,12.834,6.325,4.785.4-2.679-1.053-6.376-1.193-9.224a96.407,96.407,0,0,1,.268-11.252,82.276,82.276,0,0,1,3.933-20.467c3.162-9.5,7.187-19.8,13.349-27.82,15.251-19.841,41.65-20.972,62.611-31.89-1.819,3.348-8.831,8.767-6.4,12.54,1.678,2.606,8.029,1.816,11.062,1.732,7.979-.218,15.994-1.607,23.875-2.733,12.421-1.775,24.059-5.373,35.748-9.742,9.569-3.578,20.5-6.891,27.691-14.48a163.61,163.61,0,0,0,41.461,30.979c13.385,6.86,34.972,10.288,43.154,24.2,9.686,16.473,5.229,36.708,8.187,54.561,1.125,6.789,3.681,6.637,5.08.565a107.477,107.477,0,0,0,2.742-31.637C279.2,112.01,270.415,49.1,222.316,21.221Z" transform="translate(0)" fill="#28354b"/>
    </clipPath>
    <clipPath id="clip-path-5">
      <path id="Mask_Hair" data-name="Mask Hair" d="M629,667.123H552.758V546.133a72.082,72.082,0,0,0-72-72H371.682V430.321a133.877,133.877,0,0,0,75.746-108.989,28.6,28.6,0,0,0,24.322-28.274V262.084a28.488,28.488,0,0,0-23.826-28.2V219.2a132.506,132.506,0,0,0-11.05-53.253c-2.821-4.732-8.282-9.048-16.229-12.828-7.427-3.533-16.988-6.587-28.42-9.077-21.248-4.63-48.655-7.179-77.172-7.179-28.878,0-56.78,2.582-78.566,7.272-24.062,5.179-39.343,12.587-44.19,21.424A132.469,132.469,0,0,0,181.076,219.2v14.69a28.488,28.488,0,0,0-23.827,28.2v30.973a28.6,28.6,0,0,0,24.323,28.275,133.876,133.876,0,0,0,75.746,108.988v43.813H148.243a72.082,72.082,0,0,0-72,72V667.122H0V0H629V667.122Z" fill="none"/>
    </clipPath>
  </defs>
  <g id="Group_36" data-name="Group 36" transform="translate(-100 -104.5)">
    <g id="Group_34" data-name="Group 34" transform="translate(176.242 277.711)">
      <g id="Group_33" data-name="Group 33" transform="translate(0 0)">
        <g id="Body-2" data-name="Body" transform="translate(0 0)" clip-path="url(#clip-path)">
          <g id="_Skin" data-name="ðŸŽ¨ Skin" transform="translate(-76.243)">
            <rect id="Color" width="629.001" height="581.349" fill="#d08b5b"/>
          </g>
          <path id="Neck_Shadow" data-name="Neck Shadow" d="M141.849,152.423H125a125.923,125.923,0,0,1-25.192-2.54A124.371,124.371,0,0,1,76.345,142.6a125.011,125.011,0,0,1-21.233-11.525A125.691,125.691,0,0,1,21.348,97.312,125.013,125.013,0,0,1,9.823,76.079,124.37,124.37,0,0,1,2.54,52.615,125.923,125.923,0,0,1,0,27.423V9.074C.383,77.607,56.457,133.362,125,133.362h16.849a125.142,125.142,0,0,0,125-125V27.423a125.924,125.924,0,0,1-2.54,25.192,124.368,124.368,0,0,1-7.284,23.464A125.013,125.013,0,0,1,245.5,97.312a125.691,125.691,0,0,1-33.763,33.763A125.012,125.012,0,0,1,190.5,142.6a124.369,124.369,0,0,1-23.464,7.284A125.923,125.923,0,0,1,141.849,152.423Z" transform="translate(104.834 224.025)" fill="rgba(0,0,0,0.1)"/>
        </g>
        <g id="Mask_Group_3" data-name="Mask Group 3" transform="translate(0 388.484)" clip-path="url(#clip-path-2)">
          <g id="_Color_Fabric" data-name="â†³ Color Fabric" transform="translate(-76.243 -69.218)">
            <rect id="_Color" data-name="ðŸ–Color" width="629.001" height="262.084" fill="#e6e6e6"/>
          </g>
        </g>
      </g>
      <g id="Eyebrow_Outline_Default" data-name="Eyebrow/Outline/Default" transform="translate(133.424 128.846)">
        <g id="I_Browse" data-name="I Browse" transform="translate(0 0)">
          <path id="Eyebrow" d="M8.65,26.4c9.328-13.125,34.9-20.485,56.926-15.076a4.765,4.765,0,0,0,2.273-9.255C42.268-4.213,12.657,4.31.881,20.879A4.765,4.765,0,0,0,8.65,26.4Z" transform="translate(0 0)" fill="rgba(0,0,0,0.6)"/>
          <path id="Eyebrow-2" data-name="Eyebrow" d="M32.829,26.4C23.5,13.275-2.071,5.915-24.1,11.324a4.765,4.765,0,0,1-5.764-3.491,4.765,4.765,0,0,1,3.491-5.764C-.79-4.213,28.821,4.31,40.6,20.879A4.765,4.765,0,0,1,32.829,26.4Z" transform="translate(168.19 0)" fill="rgba(0,0,0,0.6)"/>
        </g>
      </g>
      <g id="Group_3" data-name="Group 3" transform="translate(0 388.484)">
        <path id="Clothes-2" data-name="Clothes" d="M476.516,192.866H0V72A71.94,71.94,0,0,1,72,0H174.387a55.98,55.98,0,0,0-.458,7.148c0,32.844,28.858,59.565,64.329,59.565s64.329-26.721,64.329-59.565A55.984,55.984,0,0,0,302.129,0H404.516a71.94,71.94,0,0,1,72,72Z" transform="translate(0 0)" fill="#ff6e6e"/>
      </g>
      <path id="Collar" d="M26.942,88.443h0A65.005,65.005,0,0,1,7.265,68.7a45.626,45.626,0,0,1-.806-48.1A62.885,62.885,0,0,1,24.074,1.5C24.77,1,25.487.49,26.208,0V36.468c0,13.319,8.976,25.9,24.012,33.64l-.187.146,2.382,7.507-10.91-.789L26.943,88.442Zm111.793-.867h0l-13.459-10.6-10.912.789,2.382-7.509-.184-.146c15.036-7.743,24.012-20.316,24.012-33.638V1.689A62.7,62.7,0,0,1,157.938,20.6a45.578,45.578,0,0,1-.444,47.512,64.04,64.04,0,0,1-18.757,19.467Z" transform="translate(154.868 370.66)" fill="#f2f2f2"/>
      <path id="Clip_75-2" data-name="Clip 75" d="M113.025,0V98.854H0V0H113.025Z" transform="translate(332.259 468.01)" fill="none"/>
      <g id="Bear" transform="translate(354.093 457.485)" clip-path="url(#clip-path-3)">
        <path id="Fill_74" data-name="Fill 74" d="M44.408,79.9c-10.15,0-19.432-2.373-26.842-6.861a37.18,37.18,0,0,1-10.1-8.9A37.678,37.678,0,0,1,1,51.311a29.687,29.687,0,0,1,5.063-25.46,18.442,18.442,0,0,1,1.595-1.689,14.626,14.626,0,0,0,1.92-2.128,4.043,4.043,0,0,1,1.208-1.356c.1-.063.1-.063.049-.241a9.507,9.507,0,0,1-.32-1.726,11.66,11.66,0,0,0-.731-2.637,9.573,9.573,0,0,1-.791-3.623c.107-4.8,3.535-9.828,7.8-11.441A9.483,9.483,0,0,1,20.159.419a13.866,13.866,0,0,1,4.278.74A11.915,11.915,0,0,1,27.8,3.334a9.648,9.648,0,0,0,3.144,1.993,6.237,6.237,0,0,0,1.485.15,41.211,41.211,0,0,0,7.142-1.053,39.917,39.917,0,0,1,4.686-.788c1.853-.11,3.391-.161,4.839-.161,1.146,0,2.2.032,3.235.1a18.391,18.391,0,0,1,2.341.444,19.5,19.5,0,0,0,3.636.61,2.392,2.392,0,0,0,.649-.074,8.72,8.72,0,0,0,2.687-1.748,10.671,10.671,0,0,1,2.9-1.914A15.6,15.6,0,0,1,69.791,0c.308,0,.622.009.931.026A17.057,17.057,0,0,1,77.452,1.8a10.18,10.18,0,0,1,4.794,4.823c1.536,3.483.474,6.348-.651,9.382-.372,1-.756,2.038-1.051,3.115-.191.693-.34,1.1-.439,1.366-.176.479-.176.479.085.816a9.877,9.877,0,0,1,.831,1.254A14.481,14.481,0,0,0,82.2,23.983c.3.338.581.658.792.914a42.124,42.124,0,0,1,4.217,5.933,32.433,32.433,0,0,1,4.021,12.961c.692,6.6-1.437,12.866-6.328,18.611a48.953,48.953,0,0,1-17.3,12.349,57.138,57.138,0,0,1-19.54,5.05C46.846,79.869,45.616,79.9,44.408,79.9Zm4.774-34.241v0c-8.569,0-17.1,3.518-20.744,8.554a9.737,9.737,0,0,0-1.521,8.411,11.519,11.519,0,0,0,6.48,7.413,10.568,10.568,0,0,0,4,1.09,4.051,4.051,0,0,0,2.91-1.187c1.55-1.48,1.959-6.8.941-8.219a3.308,3.308,0,0,0-2.011-1.175,3.058,3.058,0,0,1-2.589-2.468,3.358,3.358,0,0,1,.354-2.9c1.117-1.573,3.79-1.975,5.993-2.149.536-.043,1.18-.118,1.862-.2a41.867,41.867,0,0,1,4.8-.373c2.394,0,4,.445,4.9,1.361A3.378,3.378,0,0,1,55.712,56.2c-.013,1.487-1.35,2.8-2.767,4.187-1.485,1.456-3.02,2.962-3.013,4.741A4.754,4.754,0,0,0,51.7,68.445a5.934,5.934,0,0,0,4.158,1.861c2.091,0,4.318-1.274,6.271-3.587A15.2,15.2,0,0,0,65.46,60c.329-3.929-.642-7.158-2.886-9.6-2.811-3.056-7.567-4.739-13.392-4.739ZM29.855,27.118a4.6,4.6,0,0,0-1.875.411,3.24,3.24,0,0,0-1.9,3.6,4.2,4.2,0,0,0,3.358,3.6,3.829,3.829,0,0,0,.507.034,3.761,3.761,0,0,0,3.275-1.963,3.707,3.707,0,0,0,.021-3.763A3.844,3.844,0,0,0,29.855,27.118Zm29.15-1.51a3.568,3.568,0,0,0-2.087.7,3.052,3.052,0,0,0-1.429,3.537,4.921,4.921,0,0,0,4.337,3.176,2.79,2.79,0,0,0,2.746-2.3,4.063,4.063,0,0,0-.653-3.592A3.707,3.707,0,0,0,59.006,25.608Z" transform="translate(0.005 0)" fill="#fff"/>
      </g>
      <path id="Mouth_Default_background" data-name="Mouth/Default background" d="M257.319,44h0Z" transform="translate(109.599 308.622)" fill="#d08b5b"/>
      <path id="Mouth" d="M0,0A33.356,33.356,0,0,0,33.356,33.356h0A33.356,33.356,0,0,0,66.712,0" transform="translate(202.902 283.527)" fill="rgba(0,0,0,0.7)"/>
      <path id="Nose" d="M0,0C0,10.527,12.8,19.061,28.591,19.061h0c15.79,0,28.591-8.534,28.591-19.061" transform="translate(208.667 234.258)" fill="rgba(0,0,0,0.16)"/>
    </g>
    <g id="Top_Short_Hair_Short_Round" data-name="Top/Short Hair/Short Round" transform="translate(273.928 265.653)">
      <g id="Group_29" data-name="Group 29" transform="translate(0)">
        <path id="Short_Hair-2" data-name="Short Hair" d="M222.316,21.221C174.217-6.654,126.584-2.091,90.626,6.982S33.4,41.819,15.145,79.932a161.256,161.256,0,0,0-15.09,61.55A79.764,79.764,0,0,0,3.02,165.83c.8,2.873,5.136,12.834,6.325,4.785.4-2.679-1.053-6.376-1.193-9.224a96.407,96.407,0,0,1,.268-11.252,82.276,82.276,0,0,1,3.933-20.467c3.162-9.5,7.187-19.8,13.349-27.82,15.251-19.841,41.65-20.972,62.611-31.89-1.819,3.348-8.831,8.767-6.4,12.54,1.678,2.606,8.029,1.816,11.062,1.732,7.979-.218,15.994-1.607,23.875-2.733,12.421-1.775,24.059-5.373,35.748-9.742,9.569-3.578,20.5-6.891,27.691-14.48a163.61,163.61,0,0,0,41.461,30.979c13.385,6.86,34.972,10.288,43.154,24.2,9.686,16.473,5.229,36.708,8.187,54.561,1.125,6.789,3.681,6.637,5.08.565a107.477,107.477,0,0,0,2.742-31.637C279.2,112.01,270.415,49.1,222.316,21.221Z" transform="translate(0)" fill="#28354b"/>
        <g id="Mask_Group_30" data-name="Mask Group 30" clip-path="url(#clip-path-4)">
          <g id="_Hair_Color" data-name="â†³ ðŸ’ˆHair Color" transform="translate(-173.928 -62.184)">
            <rect id="Color-2" data-name="Color" width="629.001" height="667.122" fill="#724133"/>
          </g>
        </g>
      </g>
    </g>
    <g id="Top_Accesories_Hat" data-name="Top/Accesories/Hat" transform="translate(100 193.938)">
      <g id="Hat" transform="translate(0 0)">
        <path id="Mask_Hair-2" data-name="Mask Hair" d="M629,667.123H552.758V546.133a72.082,72.082,0,0,0-72-72H371.682V430.321a133.877,133.877,0,0,0,75.746-108.989,28.6,28.6,0,0,0,24.322-28.274V262.084a28.488,28.488,0,0,0-23.826-28.2V219.2a132.506,132.506,0,0,0-11.05-53.253c-2.821-4.732-8.282-9.048-16.229-12.828-7.427-3.533-16.988-6.587-28.42-9.077-21.248-4.63-48.655-7.179-77.172-7.179-28.878,0-56.78,2.582-78.566,7.272-24.062,5.179-39.343,12.587-44.19,21.424A132.469,132.469,0,0,0,181.076,219.2v14.69a28.488,28.488,0,0,0-23.827,28.2v30.973a28.6,28.6,0,0,0,24.323,28.275,133.876,133.876,0,0,0,75.746,108.988v43.813H148.243a72.082,72.082,0,0,0-72,72V667.122H0V0H629V667.122Z" transform="translate(0)" fill="none"/>
        <g id="Hat-2" data-name="Hat" transform="translate(0)" clip-path="url(#clip-path-5)">
          <path id="Hat-3" data-name="Hat" d="M21.705,74.9A95.3,95.3,0,0,1,114.8,0h44.4a95.3,95.3,0,0,1,93.093,74.9L274,173.928H0Z" transform="translate(178.693 4.765)" fill="#262626"/>
          <ellipse id="Hipster" cx="290.675" cy="136.998" rx="290.675" ry="136.998" transform="translate(23.826 71.477)" fill="#262626"/>
          <ellipse id="Very" cx="147.72" cy="59.564" rx="147.72" ry="59.564" transform="translate(166.781 135.807)" fill="#262626"/>
        </g>
      </g>
    </g>
    <g id="Clothing_Graphic_Hola" data-name="Clothing/Graphic/Hola" transform="translate(653 104.5)" opacity="0.5">
      <path id="Hola" d="M16.156,179.5c-7.963,0-13.043-1.377-15.105-4.1a5.96,5.96,0,0,1-.718-5.463c.859-3.057,6.734-7.112,11.457-10.369a43.527,43.527,0,0,0,6.139-4.672c.153-.166.357-.391.6-.663,9.429-10.309,14.021-16.912,13.655-19.624-.115-.859-3.286-3.635-6.084-6.088-1.722-1.509-3.346-2.929-4.064-3.737-4.086-4.583-8.269-9.578-10.607-15.832-3.278-8.771-4.086-20.4-2.406-34.576,1.611-13.592,5.735-24.972,12.614-34.8C28.251,30.129,37.417,22.124,49.661,15.1,62.41,7.78,76.631,3.248,93.143,1.233A139.1,139.1,0,0,1,110.064,0c12.682,0,22.711,2.929,32.523,9.5,21.924,14.684,34.61,32.6,39.924,56.39a68.385,68.385,0,0,1-2.483,38.985,77.118,77.118,0,0,1-22.694,31.889A90.01,90.01,0,0,1,124,154.876a117.649,117.649,0,0,1-21.244,4.111c-.51.051-1.076.072-1.675.072a57.167,57.167,0,0,1-6.279-.506,55.966,55.966,0,0,0-6.33-.519,13.185,13.185,0,0,0-3.622.425c-2.806.808-6.109,3.295-9.306,5.7-2.844,2.143-5.782,4.358-8.439,5.459a94.51,94.51,0,0,1-9.765,3.435,172.535,172.535,0,0,1-21.792,4.613l-.068.008A130.694,130.694,0,0,1,16.16,179.5ZM123.306,75.627c-.234,1.339-.434,2.5-.608,3.325-.026.123-.064.293-.106.506-2.887,13.434-3.575,21.567-2,23.518a1.115,1.115,0,0,0,.9.455c.714,0,1.658-.625,2.806-1.862,1.726-1.854,1.824-5.335,1.917-8.7.14-5,.272-9.731,5.221-9.731a12.5,12.5,0,0,1,3.461.582c2.678.786,2.7.986,2.776,1.837a6.537,6.537,0,0,0,1.356,3.4,11.07,11.07,0,0,1,.731,1.5c.723,1.679,1.718,3.975,3.486,3.975a2.944,2.944,0,0,0,1.475-.463,1.787,1.787,0,0,0,.731-1.165c1.462-5.773-7.342-28.161-9.557-31.843-1.786-2.972-3.456-4.477-4.957-4.477C126.623,56.488,124.548,68.468,123.306,75.627Zm29.87,15.143c-.6,1.042-.213,3.176.948,5.182.842,1.458,2.24,3.01,3.656,3.01a1.728,1.728,0,0,0,.493-.068c1.428-.4,2.1-1.773,1.824-3.784-.374-2.742-2.5-6.05-4.591-6.05A2.8,2.8,0,0,0,153.176,90.77ZM36.634,57.423c.068,3.512.123,7.032.166,10.454.893,1.9,1.1,3.4.6,4.46a3.382,3.382,0,0,1-2.381,1.709,6.383,6.383,0,0,0,1.314,3.673A3.153,3.153,0,0,1,36.9,78.85c.021.667-.043,1.743-.119,3.1-.272,4.685-.723,12.529,1.79,15.194a2.821,2.821,0,0,0,2.13.927,4.06,4.06,0,0,0,.451-.026c3.363-.408,2.308-10.684,1.739-16.206-.132-1.3-.238-2.33-.242-2.836,1.416.034,2.874.1,4.285.17,2.1.1,4.251.2,6.369.2a44.934,44.934,0,0,0,5.765-.327c0,.242-.013.672-.038,1.22-.132,3.295-.438,11.007,1.956,13.5a2.41,2.41,0,0,0,1.781.782,3.3,3.3,0,0,0,.859-.123c2.585-.714,2.878-25.227,1.042-39.134-.48-3.656-1.326-8.018-2.606-8.027a2.52,2.52,0,0,0-1.939.829c-2.079,2.291-1.433,8.979-.863,14.875.446,4.642.872,9.026-.191,10.233-.259.289-.876.434-1.883.434-.6,0-1.258-.051-1.93-.1l-.166-.013c-.565-.047-1.1-.089-1.488-.089a2.45,2.45,0,0,0-.442.03,23.086,23.086,0,0,1-4.2.446c-3.223,0-5.25-1.05-6.381-3.308-.446-.884-.463-3.282-.489-6.058-.038-4.6-.081-9.825-2.109-9.825C39.147,54.719,38.025,55.629,36.634,57.423Zm44.716,1.73c-.021.65-.034,1.169-.272,1.305-1.369.8-2.525,1.352-3.55,1.841-2.7,1.288-4.481,2.143-6.649,5.935-3.541,6.194-3.966,12.516-1.165,17.341A10.508,10.508,0,0,0,78.731,91.1c6.067,0,11.062-5.522,13.362-14.773,1.054-4.192.612-12.469-2.959-17.116a7.187,7.187,0,0,0-5.756-3.1h-.047C81.439,56.113,81.388,57.869,81.35,59.153Zm16.5-6.726c-1.641,1.186-1.594,5.646-1.56,8.6.009.9.017,1.675-.026,2.172-.094,1.1-.37,2.827-.684,4.825-1.165,7.287-2.916,18.3.174,21.435.918.935,3.21,1.45,6.445,1.45,5.08,0,11.534-1.305,12.563-3.052a2.452,2.452,0,0,0,.336-2.487c-.608-1.059-2.547-1.594-5.761-1.594a63.03,63.03,0,0,0-7.674.629c-.655.085-1.122.149-1.365.162.187-3.554.591-7.193.986-10.709a133.335,133.335,0,0,0,1.1-14.905c0-.225,0-.506.013-.829.051-1.883.128-5.034-1.037-6.228a1.535,1.535,0,0,0-1.131-.476A4.388,4.388,0,0,0,97.849,52.428ZM147.8,54.613c-.944,3.881-.315,10.322,1.871,19.144a2.772,2.772,0,0,0,2.929,2.058,4.564,4.564,0,0,0,.6-.043,2.247,2.247,0,0,0,1.637-.855c.65-.931.332-2.428.051-3.754a8.31,8.31,0,0,1-.264-1.875c.153-2.84.548-12.359-.812-15.687-1.067-2.606-2.113-3.924-3.108-3.924C149.588,49.677,148.581,51.382,147.8,54.613ZM78.264,80.193c-4.349-.842-2.394-8.337-1.161-9.88,2.6-3.261,4.12-2.117,7.559-4.179.653,1.9,1.158,14.171-5.289,14.171A5.848,5.848,0,0,1,78.264,80.193Zm53.231-14.059a87.689,87.689,0,0,1,5.493,8.7q-4.719.408-9.446.748C128.825,72.426,130.109,69.271,131.495,66.134Z" transform="translate(0)" fill="rgba(255,78,113,0.76)"/>
    </g>
  </g>
  <g id="Eyes_Side_" data-name="Eyes/Side ðŸ˜’" transform="translate(193 306.464)">
    <path id="Eye" d="M21.607,17.286a12.907,12.907,0,0,1,2.682-7.9c-.175,0-.35,0-.525,0A32.692,32.692,0,0,0,3.105,16.36C1.182,17.935-.821,16.331.346,13.931,4.336,5.723,13.319,0,23.763,0c7.581,0,14.911,2.846,19.5,7.671a12.977,12.977,0,0,1,3.554,5.364q.168.4.314.808a4.312,4.312,0,0,1,.269,1.6,12.965,12.965,0,1,1-25.8,1.843Z" transform="translate(34.572 34.571)" fill="rgba(0,0,0,0.6)"/>
    <path id="Eye-2" data-name="Eye" d="M21.607,17.286a12.907,12.907,0,0,1,2.682-7.9c-.175,0-.35,0-.525,0A32.692,32.692,0,0,0,3.105,16.36C1.182,17.935-.821,16.331.346,13.931,4.336,5.723,13.319,0,23.763,0c7.581,0,14.911,2.846,19.5,7.671a12.977,12.977,0,0,1,3.554,5.364q.168.4.314.808a4.312,4.312,0,0,1,.269,1.6,12.965,12.965,0,1,1-25.8,1.843Z" transform="translate(159.893 34.571)" fill="rgba(0,0,0,0.6)"/>
  </g>
</svg>
