<svg xmlns="http://www.w3.org/2000/svg" width="490.077" height="685.064" viewBox="0 0 490.077 685.064">
  <g id="Home-avatar" transform="translate(-115.6 -60.2)">
    <path id="Path_32" data-name="Path 32" d="M392.008,161.14v82.73A121.533,121.533,0,0,1,270.476,365.4h0A121.53,121.53,0,0,1,148.949,243.87V156.575S142.1,108.65,183.182,91.531C183.182,91.531,253.933,161.14,392.008,161.14Z" transform="translate(90.065 82.983)" fill="#e4e4e4" stroke="#2c3e50" stroke-miterlimit="10" stroke-width="2.35"/>
    <path id="Path_33" data-name="Path 33" d="M178.006,125.021h-6.087a33.472,33.472,0,0,0-33.472,33.472h0a33.472,33.472,0,0,0,33.472,33.472h14.6" transform="translate(61.008 179.581)" fill="#e4e4e4"/>
    <path id="Path_34" data-name="Path 34" d="M217.56,125.021h6.087a33.472,33.472,0,0,1,33.472,33.472h0a33.472,33.472,0,0,1-33.472,33.472h-14.6" transform="translate(264.641 179.581)" fill="#e4e4e4"/>
    <path id="Path_35" data-name="Path 35" d="M162.34,156.633v51.321a68.375,68.375,0,0,0,68.373,68.373h0a68.372,68.372,0,0,0,68.369-68.373V156.633" transform="translate(129.925 270.763)" fill="#e4e4e4" stroke="#2c3e50" stroke-miterlimit="10" stroke-width="2.35"/>
    <g id="Group_10" data-name="Group 10" transform="translate(117.296 478.717)">
      <path id="Path_36" data-name="Path 36" d="M292.265,169.845,183.7,232.528a97.341,97.341,0,0,0-47.7,70.6L117.3,434.68" transform="translate(-117.296 -169.845)" fill="none" stroke="#fff" stroke-linecap="round" stroke-miterlimit="10" stroke-width="3"/>
      <path id="Path_37" data-name="Path 37" d="M197.543,169.845l108.569,62.683a97.341,97.341,0,0,1,47.7,70.6l18.7,131.553" transform="translate(114.169 -169.845)" fill="none" stroke="#fff" stroke-linecap="round" stroke-miterlimit="10" stroke-width="3"/>
    </g>
    <path id="Path_38" data-name="Path 38" d="M153.08,307.858s-12.3-67.919-13.059-117.367,46.4-65.425,46.4-65.425,17.5-76.072,121.722-60.1,141,81.689,148.093,120.343S432.2,305.966,432.2,305.966l-9.435-1.363-6.215-8.748V244.122s-68.637-.5-108.666-15.852-103.729-52.129-103.729-52.129-29.945,18.443-30.306,44.64-.357,76.4-.357,76.4l-6.087,7.419Z" transform="translate(65.521 0)" fill="none" stroke="#e4e4e4" stroke-width="5"/>
    <g id="Eyes" transform="translate(291.954 266.945)">
      <path id="Left-eye" d="M189.649,129.02a13.694,13.694,0,1,0-13.693,13.693A13.692,13.692,0,0,0,189.649,129.02Z" transform="translate(-162.26 -115.325)" fill="#2a2a2a"/>
      <circle id="Right-eye" cx="13.693" cy="13.693" r="13.693" transform="translate(109.36 0)" fill="#2a2a2a"/>
    </g>
    <path id="Mouth" d="M160.23,133.6s22.126,31.51,76.461,31.51,76.06-31.51,76.06-31.51" transform="translate(123.839 204.318)" fill="none" stroke="#2c3e50" stroke-linecap="round" stroke-miterlimit="10" stroke-width="2.35"/>
    <path id="Path_41" data-name="Path 41" d="M179.942,166.119s17.592-8.748,18.354-16.924-9.179-26.818-9.179-26.818" transform="translate(180.696 171.955)" fill="none" stroke="#2c3e50" stroke-linecap="round" stroke-miterlimit="10" stroke-width="2.35"/>
    <path id="Left-eye-bow" d="M208.238,119.562s-24.534-23.963-50.206,0" transform="translate(117.499 133.117)" fill="none" stroke="#2c3e50" stroke-linecap="round" stroke-miterlimit="10" stroke-width="2.35"/>
    <path id="Right-eye-bow" d="M191,119.562s24.534-23.963,50.21,0" transform="translate(212.595 133.117)" fill="none" stroke="#2c3e50" stroke-linecap="round" stroke-miterlimit="10" stroke-width="2.35"/>
    <path id="Path_44" data-name="Path 44" d="M182.506,135.983a13.632,13.632,0,1,0-13.63,13.634A13.631,13.631,0,0,0,182.506,135.983Z" transform="translate(109.449 171.874)" fill="#f5b7b1"/>
    <path id="Path_45" data-name="Path 45" d="M224.733,135.983A13.634,13.634,0,1,0,211.1,149.618,13.634,13.634,0,0,0,224.733,135.983Z" transform="translate(231.237 171.874)" fill="#f5b7b1"/>
    <path id="Path_46" data-name="Path 46" d="M243.742,174.9l-81.4,17.033V159.222s2.983-3.045,10.049,0S223.08,178.26,243.742,174.9Z" transform="translate(129.925 274.327)" fill="#9a9999"/>
    <path id="Path_47" data-name="Path 47" d="M126.925,192.582l10.352,19.185a331.4,331.4,0,0,1,39.73,157.33h0" transform="translate(27.774 374.455)" fill="none" stroke="#fd4066" stroke-linecap="round" stroke-miterlimit="10" stroke-width="3"/>
    <path id="Path_48" data-name="Path 48" d="M270.144,192.582,259.8,211.767a331.351,331.351,0,0,0-39.73,157.33h0" transform="translate(296.43 374.455)" fill="none" stroke="#fd4066" stroke-linecap="round" stroke-miterlimit="10" stroke-width="3"/>
    <path id="Path_49" data-name="Path 49" d="M158.032,177.385s11.354,59.031,94.306,59.031c62.6,0,74.577-59.031,74.577-59.031" transform="translate(117.499 330.62)" fill="none" stroke="#fff" stroke-linecap="round" stroke-miterlimit="10" stroke-width="3"/>
    <path id="Path_50" data-name="Path 50" d="M160.23,203.935s72.1,118.723,160.344,132.415" transform="translate(123.839 407.201)" fill="none" stroke="#fafafa" stroke-linecap="round" stroke-miterlimit="10" stroke-width="3"/>
  </g>
</svg>
