<svg xmlns="http://www.w3.org/2000/svg" width="43.692" height="41.872" viewBox="0 0 43.692 41.872">
  <path id="github" d="M21.846.5A21.657,21.657,0,0,0,0,21.967,21.5,21.5,0,0,0,14.937,42.335c1.092.2,1.493-.462,1.493-1.032,0-.51-.018-1.861-.027-3.65-6.077,1.294-7.358-2.88-7.358-2.88a5.723,5.723,0,0,0-2.43-3.14c-1.979-1.331.153-1.3.153-1.3a4.57,4.57,0,0,1,3.346,2.212c1.948,3.282,5.114,2.334,6.363,1.786a4.545,4.545,0,0,1,1.384-2.871c-4.852-.537-9.951-2.383-9.951-10.608a8.2,8.2,0,0,1,2.248-5.76,7.511,7.511,0,0,1,.191-5.682s1.83-.575,6.008,2.2a20.946,20.946,0,0,1,10.923,0c4.151-2.776,5.98-2.2,5.98-2.2a7.718,7.718,0,0,1,.218,5.682,8.235,8.235,0,0,1,2.239,5.76c0,8.247-5.106,10.062-9.967,10.59a5.094,5.094,0,0,1,1.475,3.972c0,2.873-.027,5.181-.027,5.878,0,.563.382,1.234,1.5,1.019a21.438,21.438,0,0,0,14.994-20.34A21.66,21.66,0,0,0,21.846.5Z" transform="translate(0 -0.5)" fill="#fd4066"/>
</svg>
