<svg xmlns="http://www.w3.org/2000/svg" xmlns:xlink="http://www.w3.org/1999/xlink" width="137.21" height="69.15" viewBox="0 0 137.21 69.15">
  <defs>
    <style>
      .cls-1, .cls-4 {
        fill: #fff;
      }

      .cls-2 {
        clip-path: url(#clip-path);
      }

      .cls-3 {
        fill: #fd4066;
        stroke: #fd4066;
        stroke-width: 2px;
      }

      .cls-4 {
        font-size: 10px;
        font-family: AlibabaSans-Light, Alibaba Sans;
        font-weight: 300;
      }
    </style>
    <clipPath id="clip-path">
      <rect id="Rectangle_4" data-name="Rectangle 4" class="cls-1" width="137.21" height="69.15" transform="translate(-68.6 -34.58)"/>
    </clipPath>
  </defs>
  <g id="logo_-_V1.0" data-name="logo - V1.0" class="cls-2" transform="translate(68.6 34.58)">
    <path id="Path_2" data-name="Path 2" class="cls-3" d="M0,0H67.15V67.15H0Z" transform="translate(-67.6 -33.58)"/>
    <text id="Doung_Ratanksambat" data-name="Doung 
Ratanksambat" class="cls-4" transform="translate(3.374 -1.606)"><tspan x="0" y="0">Doung </tspan><tspan x="0" y="12">Ratanksambat</tspan></text>
    <path id="Path_1" data-name="Path 1" class="cls-1" d="M-30.88-2.68a16.75,16.75,0,0,0,4.36-4.27,9.007,9.007,0,0,0,1.62-5.22,7.128,7.128,0,0,0-3.12-6.1q-3.12-2.25-9.03-2.25h-6.93V-2.68ZM-43.99,21.39h8.35a20.019,20.019,0,0,0,6.95-1.05,13.034,13.034,0,0,0,4.55-2.73,9.793,9.793,0,0,0,2.48-3.76,12.317,12.317,0,0,0,.74-4.2,9.407,9.407,0,0,0-1.05-4.57,8.765,8.765,0,0,0-3-3.18A14.323,14.323,0,0,0-29.64.02,27.728,27.728,0,0,0-35.72-.6h-8.27Z"/>
  </g>
</svg>
